<?xml version="1.0" encoding="UTF-8" standalone="no"?>
<!-- Generator: Adobe Illustrator 19.0.0, SVG Export Plug-In . SVG Version: 6.00 Build 0)  -->

<svg
   xmlns:dc="http://purl.org/dc/elements/1.1/"
   xmlns:cc="http://creativecommons.org/ns#"
   xmlns:rdf="http://www.w3.org/1999/02/22-rdf-syntax-ns#"
   xmlns:svg="http://www.w3.org/2000/svg"
   xmlns="http://www.w3.org/2000/svg"
   xmlns:sodipodi="http://sodipodi.sourceforge.net/DTD/sodipodi-0.dtd"
   xmlns:inkscape="http://www.inkscape.org/namespaces/inkscape"
   version="1.1"
   id="Layer_1"
   x="0px"
   y="0px"
   viewBox="0 0 512.021 512.021"
   style="enable-background:new 0 0 512.021 512.021;"
   xml:space="preserve"
   sodipodi:docname="icosahedron.svg"
   inkscape:version="0.92.4 (5da689c313, 2019-01-14)"><metadata
   id="metadata43"><rdf:RDF><cc:Work
       rdf:about=""><dc:format>image/svg+xml</dc:format><dc:type
         rdf:resource="http://purl.org/dc/dcmitype/StillImage" /><dc:title></dc:title></cc:Work></rdf:RDF></metadata><defs
   id="defs41" /><sodipodi:namedview
   pagecolor="#ffffff"
   bordercolor="#666666"
   borderopacity="1"
   objecttolerance="10"
   gridtolerance="10"
   guidetolerance="10"
   inkscape:pageopacity="0"
   inkscape:pageshadow="2"
   inkscape:window-width="1465"
   inkscape:window-height="867"
   id="namedview39"
   showgrid="false"
   inkscape:zoom="0.79"
   inkscape:cx="184.66341"
   inkscape:cy="256.0105"
   inkscape:window-x="726"
   inkscape:window-y="397"
   inkscape:window-maximized="0"
   inkscape:current-layer="Layer_1" />
<g
   id="g6">
	<g
   id="g4">
		<path
   d="M490.421,137.707c-0.085-1.003-0.149-2.005-0.555-2.987c-0.107-0.256-0.32-0.427-0.448-0.683    c-0.277-0.533-0.597-0.981-0.96-1.472c-0.725-1.003-1.536-1.835-2.517-2.517c-0.256-0.171-0.363-0.491-0.64-0.64l-224-128    c-3.285-1.877-7.296-1.877-10.581,0l-224,128c-0.256,0.171-0.363,0.469-0.619,0.64c-1.024,0.704-1.899,1.557-2.645,2.624    c-0.299,0.427-0.597,0.811-0.832,1.28c-0.149,0.277-0.384,0.469-0.512,0.768c-0.469,1.173-0.619,2.389-0.661,3.584    c0,0.128-0.107,0.256-0.107,0.384v0.171c0,0.021,0,0.021,0,0.043v234.304c0,0.021,0,0.064,0,0.085v0.064    c0,0.213,0.149,0.405,0.171,0.619c0.085,1.493,0.32,2.987,1.045,4.352c0.043,0.085,0.128,0.107,0.171,0.192    c0.277,0.491,0.768,0.811,1.131,1.259c0.789,0.981,1.557,1.941,2.603,2.603c0.107,0.064,0.149,0.192,0.235,0.235l224,128    c1.664,0.939,3.477,1.408,5.312,1.408s3.648-0.469,5.291-1.408l224-128c0.107-0.064,0.149-0.192,0.256-0.256    c0.981-0.597,1.664-1.493,2.411-2.389c0.427-0.512,1.003-0.896,1.323-1.472c0.043-0.064,0.107-0.107,0.149-0.171    c0.576-1.109,0.683-2.325,0.853-3.52c0.064-0.491,0.384-0.939,0.384-1.451V138.688    C490.677,138.347,490.443,138.048,490.421,137.707z M455.52,136.981l-78.251,31.296L291.211,43.093L455.52,136.981z     M256.011,29.504l97.067,141.184H158.944L256.011,29.504z M220.747,43.115l-86.037,125.163L56.48,136.981L220.747,43.115z     M42.677,154.432l80.768,32.32L42.677,332.16V154.432z M138.635,203.392l98.325,178.773L49.248,364.288L138.635,203.392z     M245.344,482.965l-165.12-94.336l165.12,15.573V482.965z M256.011,372.544l-99.285-180.523h198.571L256.011,372.544z     M266.677,482.965v-78.571l165.035-15.723L266.677,482.965z M274.997,382.357l98.411-178.901l89.365,160.853L274.997,382.357z     M469.344,332.203l-80.811-145.451l80.811-32.32V332.203z"
   id="path2" />
	</g>
</g>
<g
   id="g8">
</g>
<g
   id="g10">
</g>
<g
   id="g12">
</g>
<g
   id="g14">
</g>
<g
   id="g16">
</g>
<g
   id="g18">
</g>
<g
   id="g20">
</g>
<g
   id="g22">
</g>
<g
   id="g24">
</g>
<g
   id="g26">
</g>
<g
   id="g28">
</g>
<g
   id="g30">
</g>
<g
   id="g32">
</g>
<g
   id="g34">
</g>
<g
   id="g36">
</g>
<path
   style="fill:#ff0000;fill-opacity:1;stroke:none;stroke-width:1.26582277"
   d="m 162.19733,167.10589 c 9.95408,-15.26687 93.39369,-135.638384 93.98725,-135.587743 0.77899,0.06646 94.09315,135.799853 94.85013,137.967603 0.26548,0.76025 -35.1012,1.20829 -95.37747,1.20829 h -95.79941 z"
   id="path4553"
   inkscape:connector-curvature="0" /><path
   style="fill:#ff0000;fill-opacity:1;stroke:none;stroke-width:1.26582277"
   d="M 336.04428,107.22571 C 313.42404,74.339974 294.73168,46.985831 294.5057,46.438727 c -0.22598,-0.547103 35.59092,19.58025 79.5931,44.727451 l 80.00399,45.722182 -35.92223,14.40423 c -19.75722,7.92232 -37.06665,14.70148 -38.4654,15.0648 -2.15992,0.56103 -8.74106,-8.35003 -43.67088,-59.13168 z"
   id="path4555"
   inkscape:connector-curvature="0" /><path
   style="fill:#ff0000;fill-opacity:1;stroke:none;stroke-width:1.26582277"
   d="m 429.41024,258.85975 c -21.40823,-38.53818 -38.91674,-70.58096 -38.90781,-71.20617 0.0159,-1.11515 77.29169,-32.47861 78.0803,-31.69 0.22119,0.22119 0.25578,39.22893 0.0769,86.68388 l -0.3253,86.28171 z"
   id="path4557"
   inkscape:connector-curvature="0" /><path
   style="fill:#ff0000;fill-opacity:1;stroke:none;stroke-width:1.26582277"
   d="m 276.56214,381.24289 c 0,-0.44939 96.11322,-175.3534 96.73379,-176.0333 0.14788,-0.16202 20.07045,35.34688 44.27237,78.90867 24.20194,43.56178 43.81621,79.36598 43.58728,79.56491 -0.22892,0.19891 -40.57445,4.14528 -89.65673,8.76971 -49.08228,4.62442 -90.52215,8.6048 -92.08861,8.84528 -1.56645,0.24046 -2.8481,0.2156 -2.8481,-0.0553 z"
   id="path4559"
   inkscape:connector-curvature="0" /><path
   style="fill:#ff0000;fill-opacity:1;stroke:none;stroke-width:1.26582277"
   d="m 206.79164,281.7059 -48.88442,-88.85996 97.50525,-0.32431 c 53.6279,-0.17838 97.73544,-0.0941 98.01676,0.18719 0.48937,0.48936 -95.14299,175.14251 -96.90192,176.97175 -0.46819,0.4869 -22.84924,-39.1017 -49.73567,-87.97467 z"
   id="path4561"
   inkscape:connector-curvature="0" /><path
   style="fill:#ff0000;fill-opacity:1;stroke:none;stroke-width:1.26582277"
   d="M 140.48619,372.51314 C 95.233026,368.11385 56.413341,364.3384 54.220225,364.12323 l -3.987484,-0.39121 43.789842,-78.79747 c 24.084417,-43.33861 44.167777,-78.79747 44.629687,-78.79747 0.79667,0 96.13772,172.55673 96.13772,173.99861 0,1.33362 -12.913,0.28986 -94.3038,-7.62255 z"
   id="path4563"
   inkscape:connector-curvature="0" /><path
   style="fill:#ff0000;fill-opacity:1;stroke:none;stroke-width:1.26582277"
   d="m 43.650747,241.80956 v -86.26845 l 6.012658,2.38046 c 39.568619,15.66551 70.747535,28.33422 71.492435,29.04903 0.7234,0.69416 -74.457701,138.06001 -76.894919,140.49724 -0.335596,0.33559 -0.610174,-38.21063 -0.610174,-85.65828 z"
   id="path4565"
   inkscape:connector-curvature="0" /><path
   style="fill:#ff0000;fill-opacity:1;stroke:none;stroke-width:1.26582277"
   d="M 95.210847,151.98618 C 67.005015,140.59863 59.157948,136.95392 60.40072,135.81797 c 2.463804,-2.25201 155.59814,-89.400288 156.13977,-88.858656 0.9599,0.959899 -81.30998,119.302326 -83.0829,119.511936 -1.00769,0.11913 -18.21872,-6.39915 -38.246743,-14.48507 z"
   id="path4567"
   inkscape:connector-curvature="0" /><path
   style="fill:#ff0000;fill-opacity:1;stroke:none;stroke-width:1.26582277"
   d="m 164.36053,435.92127 c -43.95772,-25.08383 -79.555775,-45.75045 -79.106784,-45.92581 1.228752,-0.47991 158.469014,14.52587 159.129174,15.18604 0.31424,0.31423 0.42046,17.6208 0.23604,38.45904 l -0.3353,37.88771 z"
   id="path4569"
   inkscape:connector-curvature="0" /><path
   style="fill:#ff0000;fill-opacity:1;stroke:none;stroke-width:1.26582277"
   d="m 267.70138,442.84594 c 0,-20.88607 0.14241,-37.97543 0.31646,-37.97635 0.17405,-9.2e-4 35.89655,-3.39235 79.38333,-7.5365 43.48678,-4.14416 79.24129,-7.36042 79.45445,-7.14725 0.44039,0.44038 -157.15861,90.63478 -158.36849,90.63478 -0.43216,0 -0.78575,-17.0886 -0.78575,-37.97468 z"
   id="path4571"
   inkscape:connector-curvature="0" /></svg>