<svg id="Layer_1" enable-background="new 0 0 256 256" height="512" viewBox="0 0 256 256" width="512" xmlns="http://www.w3.org/2000/svg"><g><path d="m181.763 150.452-73.339 73.339c-.924.924-2.185 1.45-3.506 1.45h-24.582c-4.37 0-6.585-5.214-3.635-8.353.04-.04.079-.089.119-.129l25.903-25.903 19.318-19.318 40.404-40.404.01.01 10.528 10.528z" fill="#b76c6c"/><path d="m83.062 68.997v-33.272c0-2.743-2.223-4.966-4.966-4.966h-10.429c-2.743 0-4.966 2.223-4.966 4.966v33.273h-4.718c-1.646 0-2.98 1.334-2.98 2.98v4.469c0 8.228 6.67 14.898 14.898 14.898h5.959c8.228 0 14.898-6.67 14.898-14.898v-4.469c0-1.646-1.334-2.98-2.98-2.98h-4.716z" fill="#87828e"/><path d="m8.82 49.686v-.608c0-4.083 3.31-7.393 7.393-7.393h46.489v15.395h-46.489c-4.083-.001-7.393-3.311-7.393-7.394z" fill="#b76c6c"/><path d="m164.381 68.809-6.893 11.938-.377.656h.069v35.825h-18.325v-35.825h.07l-.377-.656-6.893-11.938c-1.142-1.986.288-4.469 2.582-4.469h27.562c2.294 0 3.725 2.483 2.582 4.469z" fill="#87828e"/><path d="m219.213 102.748h-61.913v-16.885h61.913c4.478 0 8.109 3.63 8.109 8.109v.667c-.001 4.478-3.631 8.109-8.109 8.109z" fill="#b76c6c"/><path d="m157.3 85.863h14.898v16.885h-14.898z" fill="#c98585"/><path d="m227.321 94.305c0 2.324-.943 4.44-2.473 5.969-1.53 1.53-3.645 2.473-5.969 2.473h-14.898c2.324 0 4.44-.944 5.969-2.473 1.53-1.53 2.473-3.645 2.473-5.969 0-4.658-3.784-8.442-8.442-8.442h14.898c4.658 0 8.442 3.784 8.442 8.442z" fill="#965959"/><path d="m148.818 81.403h-.069v35.825h-9.892v-35.825h.07l-.377-.656-6.893-11.938c-1.142-1.986.288-4.469 2.582-4.469h9.892c-2.294 0-3.725 2.483-2.582 4.469l6.893 11.938z" fill="#a4a4a5"/><path d="m47.808 41.685h14.898v15.395h-14.898z" fill="#965959"/><path d="m31.42 57.08h-14.898c-4.261 0-7.697-3.446-7.697-7.697s3.436-7.697 7.697-7.697h14.898c-4.261 0-7.697 3.446-7.697 7.697 0 4.25 3.436 7.697 7.697 7.697z" fill="#c98585"/><path d="m78.389 91.137c-.814.139-1.659.209-2.523.209h-5.959c-8.234 0-14.898-6.674-14.898-14.898v-4.469c0-1.649 1.331-2.98 2.98-2.98h4.718v-33.273c0-2.741 2.215-4.966 4.966-4.966h10.429c.099 0 .199 0 .288.02-2.612.129-4.688 2.294-4.688 4.946v33.273h-4.718c-1.639 0-2.98 1.331-2.98 2.98v4.469c0 7.369 5.353 13.487 12.385 14.689z" fill="#a4a4a5"/><path d="m172.983 141.672-83.569 83.568h-9.078c-4.37 0-6.585-5.214-3.635-8.353l85.754-85.744z" fill="#c98585"/><path d="m175.654 225.25h-24.582c-1.281 0-2.503-.487-3.427-1.371l-73.418-73.418 10.528-10.528 8.79-8.79 59.722 59.722 25.903 25.913c3.119 3.129.904 8.472-3.516 8.472z" fill="#b76c6c"/><path d="m170.072 225.25h-19c-1.281 0-2.503-.487-3.427-1.371l-73.418-73.418 10.528-10.528z" fill="#c98585"/><path d="m241.655 150.374h-227.31c-5.523 0-10-4.477-10-10v-13.029c0-5.523 4.477-10 10-10h227.31c5.523 0 10 4.477 10 10v13.029c0 5.523-4.477 10-10 10z" fill="#b76c6c"/><path d="m29.175 150.372h-14.898c-5.483 0-9.932-4.45-9.932-9.932v-13.16c0-5.493 4.45-9.932 9.932-9.932h14.898c-5.483 0-9.932 4.44-9.932 9.932v13.16c0 5.483 4.45 9.932 9.932 9.932z" fill="#c98585"/><path d="m251.655 127.28v13.16c0 5.482-4.45 9.932-9.932 9.932h-14.898c5.483 0 9.932-4.45 9.932-9.932v-13.16c0-5.493-4.45-9.932-9.932-9.932h14.898c5.482 0 9.932 4.439 9.932 9.932z" fill="#965959"/><g fill="#5f266d"><path d="m16.522 61.052h42.212v3.973h-.755c-3.824 0-6.952 3.119-6.952 6.952v4.469c0 10.409 8.472 18.871 18.871 18.871h5.959c10.409 0 18.871-8.462 18.871-18.871v-4.469c0-3.834-3.119-6.952-6.952-6.952h-.736v-29.3c0-4.926-4.013-8.939-8.939-8.939h-10.429c-4.926 0-8.939 4.013-8.939 8.939v1.986h-42.211c-6.436 0-11.67 5.234-11.67 11.67 0 6.437 5.234 11.671 11.67 11.671zm70.26 15.395c0 6.019-4.897 10.925-10.925 10.925h-5.959c-6.019 0-10.925-4.906-10.925-10.925v-3.476h27.81v3.476zm-20.103-40.721c0-.546.447-.993.993-.993h10.429c.546 0 .993.447.993.993v29.3h-12.415zm-50.157 9.932h42.212v7.449h-42.212c-2.056 0-3.725-1.669-3.725-3.725s1.669-3.724 3.725-3.724z"/><path d="m241.723 113.375h-80.569v-6.655h57.726c6.843 0 12.415-5.572 12.415-12.415s-5.572-12.415-12.415-12.415h-57.457l6.396-11.094c1.261-2.175 1.261-4.767 0-6.952-1.251-2.175-3.506-3.476-6.019-3.476h-27.562c-2.513 0-4.758 1.301-6.019 3.476-1.261 2.185-1.251 4.777 0 6.952l6.664 11.551v31.028h-120.606c-7.668 0-13.905 6.237-13.905 13.905v13.16c0 7.668 6.237 13.905 13.905 13.905h58.232l30.551 30.551-29.051 29.051c-5.625 5.625-1.626 15.266 6.327 15.266h24.582c2.354 0 4.648-.953 6.317-2.612l16.765-16.765 16.765 16.765c1.659 1.659 3.963 2.612 6.317 2.612h24.582c7.946 0 11.951-9.62 6.327-15.266l-29.051-29.051 30.551-30.551h58.232c7.668 0 13.905-6.237 13.905-13.905v-13.16c0-7.668-6.238-13.905-13.905-13.905zm-22.844-23.539c2.463 0 4.469 2.006 4.469 4.469s-2.006 4.469-4.469 4.469h-57.606v-8.939h57.606zm-58.798-21.523-6.416 11.104c-.457.795-.596 1.698-.457 2.582v31.256h-10.379v-31.107c.179-.924.02-1.897-.457-2.731l-6.416-11.104zm-54.468 152.667c-.179.179-.437.288-.695.288h-24.582c-.908 0-1.346-1.078-.705-1.698l29.051-29.051 13.696 13.696zm70.756-1.411c.641.621.202 1.698-.705 1.698h-24.582c-.258 0-.516-.099-.695-.288-7.447-7.447-55.515-55.515-66.635-66.635h27.393zm-48.369-59.612-5.612-5.612h11.223zm19.318 19.318-13.696-13.696 11.233-11.233h27.393zm100.364-38.835c0 3.288-2.672 5.959-5.959 5.959-11.045 0-216.42 0-227.446 0-3.288 0-5.959-2.672-5.959-5.959v-13.16c0-3.288 2.672-5.959 5.959-5.959h227.446c3.288 0 5.959 2.672 5.959 5.959z"/><path d="m53.012 129.882h-1.986c-5.245 0-5.258 7.946 0 7.946h1.986c5.267 0 5.241-7.946 0-7.946z"/><path d="m36.128 129.882h-15.892c-5.245 0-5.258 7.946 0 7.946h15.891c5.268 0 5.241-7.946.001-7.946z"/></g></g></svg>